<svg id="Component_133_1" data-name="Component 133 – 1" xmlns="http://www.w3.org/2000/svg" width="21.842" height="19.123" viewBox="0 0 21.842 19.123"  fill="#f0f1f3">
  <path d="M1000.441,344.43q-4.351,0-8.7,0a3.049,3.049,0,0,1-3.07-2.448,2.9,2.9,0,0,1-.064-.613q-.005-7.5,0-15a1.024,1.024,0,1,1,2.047,0c0,4.944.009,9.888-.01,14.832a1.137,1.137,0,0,0,1.206,1.194c5.808-.016,11.616-.008,17.424-.011a1.093,1.093,0,0,1,.985.439,1.017,1.017,0,0,1-.729,1.6,2.834,2.834,0,0,1-.3.008Z" transform="translate(-988.602 -325.308)"/>
  <path d="M1054.487,376.742c-.091.086-.148.137-.2.19l-4.614,4.556a.94.94,0,0,1-1.37-.048q-1.636-1.606-3.274-3.211c-.04-.039-.082-.075-.13-.119-.032.027-.061.047-.085.071-.87.86-1.741,1.717-2.607,2.581a.936.936,0,0,1-1.305.093.97.97,0,0,1-.254-1.311,1.633,1.633,0,0,1,.228-.28q1.641-1.647,3.286-3.29a.993.993,0,0,1,1.506,0q1.612,1.6,3.227,3.2c.04.039.082.076.107.1l3.969-3.972c-.031,0-.088-.011-.145-.011-.7,0-1.393,0-2.09,0a.982.982,0,0,1-.948-.639.964.964,0,0,1,.192-1.069.938.938,0,0,1,.734-.334c1.606,0,3.213-.009,4.819,0a1,1,0,0,1,1,1.051q0,2.358,0,4.715a1.024,1.024,0,1,1-2.047,0C1054.487,378.271,1054.487,377.532,1054.487,376.742Z" transform="translate(-1036.058 -369.141)"/>
</svg>
