<svg  fill="current" stroke="current"  xmlns="http://www.w3.org/2000/svg" width="11" height="11" viewBox="0 0 11 11">
    <path data-name="Path 1109" d="M-49.308 2.277c.073.069.126.115.175.165l1.994 1.994c.693.693 1.382 1.389 2.079 2.077a.714.714 0 0 0 1.227-.263.754.754 0 0 0-.256-.794Q-46.1 3.448-48.11 1.435c-.054-.055-.105-.114-.192-.209.148-.13.291-.244.419-.372l3.8-3.8a.755.755 0 0 0 .257-.751.715.715 0 0 0-1.245-.287Q-47.1-1.961-49.125.069c-.054.054-.113.105-.177.164-.069-.065-.127-.117-.183-.173l-1.926-1.926c-.709-.71-1.416-1.423-2.13-2.128a.712.712 0 0 0-1.218.24.746.746 0 0 0 .249.816q2 1.991 3.987 3.987c.066.066.128.135.219.231-.1.091-.195.165-.278.249q-1.952 1.95-3.9 3.9a.742.742 0 0 0-.108 1.114.736.736 0 0 0 1.114-.092q.372-.371.743-.744z" transform="translate(54.8 4.24)"/>
</svg>
