<svg xmlns="http://www.w3.org/2000/svg" width="20.5" height="20.5" viewBox="0 0 20.5 20.5" fill="#1d4370">
  <path d="M1080.8-382.754a9.978,9.978,0,0,1-9.971-10,10.018,10.018,0,0,1,9.915-10,10.046,10.046,0,0,1,10.085,10.116A10.016,10.016,0,0,1,1080.8-382.754Zm-.087-15.929a1.675,1.675,0,0,1,.027-.365.809.809,0,0,1,.175-.292,3.915,3.915,0,0,1,1.894-1.2.542.542,0,0,1,.605.131.921.921,0,0,0,.432.222.7.7,0,0,0,.455-.017.843.843,0,0,0,.273-.372.672.672,0,0,0-.243-.183,8.668,8.668,0,0,0-7.741.362c-.33.175-.636.395-.979.61.11.069.178.107.241.151.242.169.256.307.066.526a.758.758,0,0,0-.111.18,3.4,3.4,0,0,1-1.484,1.589,1.637,1.637,0,0,1-.925.23.2.2,0,0,0-.231.138c-.191.431-.419.85-.571,1.294-.186.544-.311,1.108-.462,1.663a1.75,1.75,0,0,1,.308.136,3.593,3.593,0,0,1,.592.481c.192.219.155.392-.055.6a2.937,2.937,0,0,0-.757,1.4.558.558,0,0,0,0,.233,7.819,7.819,0,0,0,.858,2.485,8.628,8.628,0,0,0,8.343,4.664c.407-.014.812-.1,1.217-.149a3.2,3.2,0,0,1-1.229-.523c-.239-.157-.458-.344-.7-.5a1.236,1.236,0,0,1-.562-.937c-.1-.758-.216-1.515-.343-2.27a2.916,2.916,0,0,0-.517-1.327.965.965,0,0,0-.805-.449,5.749,5.749,0,0,1-1.023-.112,2.351,2.351,0,0,1-2.027-2.565,2.878,2.878,0,0,1,.728-1.73,3.49,3.49,0,0,1,1.631-.852,1.084,1.084,0,0,1,.853.113,4.77,4.77,0,0,1,.627.41c.291.22.564.464.855.684a2.09,2.09,0,0,0,1.034.442.4.4,0,0,0,.219-.04c.284-.149.559-.315.843-.463s.6-.273.883-.438a2.105,2.105,0,0,0,.369-.368l-.141-.053c-.231-.09-.25-.173-.068-.35a3.255,3.255,0,0,0,.3-.272c.1-.127.274-.328.234-.408-.068-.139-.272-.215-.427-.3a.276.276,0,0,0-.166,0,1.049,1.049,0,0,0-.85,1.517,1.033,1.033,0,0,1-.983-.22,7.664,7.664,0,0,1-.586-.625,7.87,7.87,0,0,0-.6-.643.829.829,0,0,0-.984-.066.226.226,0,0,0-.1.122.823.823,0,0,1-1.092.628c-.149-.036-.355-.056-.358-.246s.209-.2.354-.245c.416-.117.446-.228.135-.544-.07-.071-.146-.138-.212-.213a.985.985,0,0,1-.09-.159,2.794,2.794,0,0,0,1.494-.428c.152-.087.293-.194.2-.407a.631.631,0,0,1,.629.015c.2.1.4.223.6.326a.5.5,0,0,0,.651-.085,2.286,2.286,0,0,0,.4-.67.315.315,0,0,0-.356-.453A5.208,5.208,0,0,0,1080.718-398.683Zm2.2,14.408a8.487,8.487,0,0,0,4.447-2.668,8.584,8.584,0,0,0,2.011-3.965c-.066.053-.089.069-.109.087-.209.186-.334.165-.426-.095a3.56,3.56,0,0,1-.13-.54.767.767,0,0,0-.816-.718c-.143-.006-.288.013-.429,0-.317-.036-.631-.088-.947-.128a.771.771,0,0,0-.161.014,3.126,3.126,0,0,1-.631.047c-.311-.037-.615-.131-.922-.2-.7-.149-.918.063-.827.771a.332.332,0,0,0,.256.307.753.753,0,0,0,.358.021c.333-.083.657-.2.988-.286a1.332,1.332,0,0,1,.31-.01.986.986,0,0,1-.037.321c-.138.282-.294.556-.452.828a25.8,25.8,0,0,0-1.778,3.377,4.135,4.135,0,0,0-.357,1.9A1,1,0,0,1,1082.92-384.274Z" transform="translate(-1070.584 403.004)"/>
</svg>
