<svg xmlns="http://www.w3.org/2000/svg" width="24.979" height="24.979" viewBox="0 0 24.979 24.979">
    <path data-name="Path 3959" d="M26.979 14.489A12.489 12.489 0 1 1 14.489 2a12.49 12.49 0 0 1 12.49 12.489zM16.05 8.245a1.561 1.561 0 1 1-1.561-1.561 1.562 1.562 0 0 1 1.561 1.561zm-3.122 4.683a1.561 1.561 0 0 0 0 3.122v4.683a1.562 1.562 0 0 0 1.561 1.567h1.561a1.561 1.561 0 0 0 0-3.122v-4.689a1.562 1.562 0 0 0-1.561-1.561z" transform="translate(-2 -2)" style="fill:#fd3540;fill-rule:evenodd"/>
</svg>
