  <svg
    xmlns="http://www.w3.org/2000/svg"
    xmlSpace="preserve"
    height="22"
	  fill="#f0f1f3"
    viewBox="0 0 22 22"
  >
    <path
      d="M12.6 17.5v3c0 .8-.6 1.5-1.4 1.5H9.5c-.8 0-1.4-.7-1.4-1.5v-2.9c-.5 0-1-.3-1.3-.7-.1-.2-.2-.5-.2-.7v-3.6c0-1.2.9-2.2 2.1-2.3h3c1.2 0 2.2.9 2.3 2.2v3.6c.1.8-.5 1.5-1.4 1.6v-.2zm-3.7-5.1v2.9h2.9v-2.9H8.9zm8.2 8.4v.3c.1.5.6.9 1.1.9.6 0 1.1-.5 1.1-1.1v-4.8h1.6c.8-.2 1.2-1 1-1.8-.6-2.2-1.2-4.3-1.9-6.5-.3-1.1-1.3-1.9-2.4-2-.8-.1-1.5-.1-2.3 0-.4 0-.8.1-1.1.2-.1 0-.2 0-.1.2v.7c-.1.4-.2.7-.2 1.1h3.2c.4 0 .8.2.8.6l1.5 5.1v.2h-3.9v2.2H17c.1 1.6.1 3.1.1 4.7zM5.2 12.3h-3V8.5c.1-.5.5-.8.9-.7H7c-.3-.6-.4-1.3-.3-2-.1 0-.3-.1-.4-.1-1.2 0-2.4-.1-3.6 0-1.5.1-2.8 1.5-2.7 3v4.4c0 .3.1.5.2.8.3.5.7.7 1.3.7v6.6c.1.4.6.8 1.1.8.6 0 1.1-.5 1.1-1.1v-6.3h1.5v-2.3zM16.4 5c1.4 0 2.5-1.1 2.5-2.5S17.8 0 16.4 0s-2.5 1.1-2.5 2.5S15 5 16.4 5zM6.7 2.5C6.7 1.1 5.6 0 4.2 0S1.7 1.1 1.7 2.5 2.8 5 4.2 5c1.3 0 2.5-1.1 2.5-2.5zm5.9 4.7c0-1.2-1-2.2-2.2-2.2-1.3 0-2.2 1-2.2 2.2 0 1.2 1 2.2 2.2 2.2 1.2.1 2.2-.9 2.2-2.2z"
    />
  </svg>