<svg
    xmlns="http://www.w3.org/2000/svg"
    xmlSpace="preserve"
    fill="#f0f1f3"
    height="22"
    viewBox="0 0 22 22"
  >
    <path
      d="m13.3 11-3.2-2.1v4.3l3.2-2.2.6-.8.6-.8c.2.1.4.3.6.6.2.3.3.7.3 1.1 0 .6-.3 1.3-.9 1.7l-3.2 2.1c-.3.2-.7.3-1.1.3-1.1 0-2-.9-2-2V8.9c0-.4.1-.8.3-1.1.4-.6 1-.9 1.7-.9.4 0 .8.1 1.1.3l3.2 2.1-.6.8-.6.9zm7.7 0h-1c0 2.5-1 4.7-2.6 6.4C15.7 19 13.5 20 11 20c-2.5 0-4.7-1-6.4-2.6C3 15.7 2 13.5 2 11c0-2.5 1-4.7 2.6-6.4C6.3 3 8.5 2 11 2c2.5 0 4.7 1 6.4 2.6C19 6.3 20 8.5 20 11h2c0-6.1-4.9-11-11-11S0 4.9 0 11s4.9 11 11 11 11-4.9 11-11h-1z"
      className="st0"
    />
  </svg>