  <svg
    xmlns="http://www.w3.org/2000/svg"
    xmlSpace="preserve"
    fill= "#e8ecf0"
    viewBox="0 0 21.5 21.5"
 
  >
    <path
      d="M18.9 20.5V8.6L11.4.9l-8 7.7v11.9l5.4-.6.3-6.4 3.7.4v6z"
     
    />
    <path
      d="m1.3 11.3 2.2-2.2c.3-.3.3-.8 0-1.1-.3-.3-.8-.3-1.1 0L.2 10.2c-.3.3-.3.8 0 1.1.3.3.8.3 1.1 0zm2.2-2.2 7.2-7.2L18 9.1c.3.3.8.3 1.1 0 .3-.3.3-.8 0-1.1L11.3.2c-.3-.3-.8-.3-1.1 0L2.4 8c-.3.3-.3.8 0 1.1.3.3.8.3 1.1 0zm-1.3-.6v11.1c0 1 .8 1.9 1.9 1.9h3.3c.4 0 .7-.3.7-.7 0-.4-.3-.7-.7-.7H4.1c-.2 0-.4-.2-.4-.4V8.5c0-.4-.3-.7-.7-.7-.4 0-.8.3-.8.7zm15.8.6 2.2 2.2c.3.3.8.3 1.1 0 .3-.3.3-.8 0-1.1L19.1 8c-.3-.3-.8-.3-1.1 0-.3.3-.3.8 0 1.1zm-.2-.6v11.1c0 .2-.2.4-.4.4h-3.3c-.4 0-.8.3-.8.8 0 .4.3.8.8.8h3.3c1 0 1.9-.8 1.9-1.9V8.5c0-.4-.3-.7-.7-.7-.5 0-.8.3-.8.7zm-10.4 13c1 0 1.9-.8 1.9-1.9v-4.4c0-.2.2-.4.4-.4h2.2c.2 0 .4.2.4.4v4.4c0 1 .8 1.9 1.9 1.9.4 0 .8-.3.8-.7 0-.4-.3-.8-.7-.8-.2 0-.4-.2-.4-.4v-4.4c0-1-.8-1.9-1.9-1.9H9.6c-1 0-1.9.8-1.9 1.9v4.4c0 .2-.2.4-.4.4-.4 0-.7.3-.7.8.1.4.4.7.8.7zm0 0h6.7c.4 0 .8-.3.8-.8 0-.4-.3-.8-.8-.8H7.4c-.4 0-.8.3-.8.8.1.5.4.8.8.8z"
        fill= "#1d4370"
  
    />
  </svg>