<svg xmlns="http://www.w3.org/2000/svg" width="22" height="22" viewBox="0 0 22 22" fill="#f0f1f3">
  <path d="M3.878,13.778l2.2-2.2a1.1,1.1,0,0,0-1.555-1.555l-2.2,2.2a1.1,1.1,0,1,0,1.555,1.555Zm2.2-2.2L13,4.655l6.922,6.922a1.1,1.1,0,1,0,1.555-1.555l-7.7-7.7a1.1,1.1,0,0,0-1.555,0l-7.7,7.7a1.1,1.1,0,0,0,1.555,1.555ZM4.2,10.8v11A2.2,2.2,0,0,0,6.4,24H9.7a1.1,1.1,0,0,0,0-2.2H6.4v-11a1.1,1.1,0,1,0-2.2,0Zm15.722.778,2.2,2.2a1.1,1.1,0,1,0,1.555-1.555l-2.2-2.2a1.1,1.1,0,0,0-1.555,1.555ZM19.6,10.8v11H16.3a1.1,1.1,0,0,0,0,2.2h3.3a2.2,2.2,0,0,0,2.2-2.2v-11a1.1,1.1,0,1,0-2.2,0ZM9.7,24a2.2,2.2,0,0,0,2.2-2.2V17.4h2.2v4.4A2.2,2.2,0,0,0,16.3,24a1.1,1.1,0,0,0,0-2.2h0V17.4a2.2,2.2,0,0,0-2.2-2.2H11.9a2.2,2.2,0,0,0-2.2,2.2v4.4a1.1,1.1,0,0,0,0,2.2Zm0,0h6.6a1.1,1.1,0,0,0,0-2.2H9.7a1.1,1.1,0,0,0,0,2.2Z" transform="translate(-2 -2)"/>
</svg>
