<?xml version="1.0" encoding="utf-8"?>
<!-- Generator: Adobe Illustrator 25.4.6, SVG Export Plug-In . SVG Version: 6.00 Build 0)  -->
<svg version="1.1" id="Calque_1" xmlns="http://www.w3.org/2000/svg" xmlns:xlink="http://www.w3.org/1999/xlink" x="0px" y="0px"
	 viewBox="0 0 472.1 652.3" style="enable-background:new 0 0 472.1 652.3;" xml:space="preserve">
<style type="text/css">
	.st0{fill:#FFFFFF;}
	.st1{fill:#0078BB;}
	.st2{fill:#4CA0CF;}
	.st3{fill:#3293C8;}
	.st4{fill:#004870;}
	.st5{fill:#3FBBAB;}
</style>
<g>
	<ellipse class="st0" cx="236.1" cy="330.3" rx="185" ry="186.5"/>
	<path class="st1" d="M252.7,232.1v-18.6c0-4.4-3.6-8-8-8h-14.3c-4.4,0-8,3.6-8,8v18.6L252.7,232.1z"/>
	<path class="st2" d="M268.5,275.4v-37.2c0-5.7-4.6-10.4-10.4-10.4h0h-41.3c-5.7,0-10.4,4.6-10.4,10.4v0v37.2L268.5,275.4z"/>
	<path class="st1" d="M472.1,0l0,91.1c0.1,20.3-16.3,36.8-36.6,36.9h0H269.7c-15.1,0.1-27.3,12.3-27.2,27.4l0,0v75.9
		c0,2.6-2.1,4.7-4.7,4.7s-4.7-2.1-4.7-4.7v0v-75.9c-0.1-20.3,16.3-36.8,36.6-36.9l0,0h165.8c15.1-0.1,27.3-12.3,27.2-27.4l0,0
		L462.8,0L472.1,0z"/>
	<path class="st1" d="M202.1,283.6h70.8c0.4,0,0.7-0.3,0.7-0.7v-6.8c0-0.4-0.3-0.7-0.7-0.7h-70.8c-0.4,0-0.7,0.3-0.7,0.7v6.8
		C201.4,283.3,201.7,283.6,202.1,283.6z"/>
	<path class="st3" d="M268.5,275.4v-37.2c0-5.7-4.6-10.4-10.4-10.4h0h-41.3c-5.7,0-10.4,4.6-10.4,10.4v0
		c44.6,3.1,48.7,37.2,48.7,37.2L268.5,275.4z"/>
	<rect x="206.5" y="272.4" class="st4" width="62.1" height="3"/>
	<rect x="222.3" y="225.9" class="st4" width="30.3" height="1.9"/>
	<path class="st4" d="M252.7,227.9v-14.4c0-4.4-3.6-8-8-8h-14.3c-2.4,0-4.6,1-6.1,2.8c22.2-2.7,25.6,19.6,25.6,19.6L252.7,227.9z"/>
	<path class="st5" d="M156.7,316.1h-19.2c-1.5,0-2.6-1.2-2.7-2.6c0-1.5,1.2-2.6,2.6-2.7h0h19.2c1.5,0,2.6,1.2,2.6,2.7
		C159.3,314.9,158.1,316.1,156.7,316.1L156.7,316.1z"/>
	<path class="st5" d="M180.8,291.7c-1.5,0-2.6-1.2-2.6-2.6v0v-19.2c0-1.5,1.2-2.6,2.6-2.7c1.5,0,2.6,1.2,2.7,2.6v0V289
		C183.5,290.5,182.3,291.7,180.8,291.7L180.8,291.7z"/>
	<path class="st5" d="M163.4,298.4c-0.7,0-1.4-0.3-1.9-0.8l-13.2-13.2c-1-1.1-1-2.7,0.1-3.7c1-1,2.6-1,3.7,0l13.2,13.2
		c1,1,1,2.7,0,3.7C164.7,298.2,164.1,298.4,163.4,298.4L163.4,298.4z"/>
	<path class="st4" d="M249,447.5V462c0,4.5-3.6,8.1-8.1,8.1h-14.4c-2.4,0-4.6-1-6.2-2.9c22.4,2.7,25.9-19.8,25.9-19.8H249z"/>
	<path class="st1" d="M0,652.3l0-91.5c0-20.3,16.3-36.7,36.6-36.8h0h165.8c15.1,0,27.2-12.3,27.2-27.3l0,0V421
		c0-2.6,2.1-4.7,4.7-4.7s4.7,2.1,4.7,4.7v75.7c0,20.3-16.3,36.7-36.6,36.8h0H36.6c-15.1,0-27.2,12.3-27.2,27.3l0,0v91.5L0,652.3z"/>
	<path class="st1" d="M249,443.3V462c0,4.5-3.6,8.1-8.1,8.1h-14.4c-4.5,0-8.1-3.6-8.1-8.1v-18.8H249z"/>
	<path class="st2" d="M265,399.5V437c0,5.8-4.7,10.5-10.5,10.5h0h-41.7c-5.8,0-10.5-4.7-10.5-10.5v0v-37.5H265z"/>
	<path class="st1" d="M198,391.2h71.4c0.4,0,0.7,0.3,0.7,0.7v6.8c0,0.4-0.3,0.7-0.7,0.7H198c-0.4,0-0.7-0.3-0.7-0.7V392
		C197.3,391.6,197.6,391.2,198,391.2z"/>
	<path class="st1" d="M224.4,391.2h-10.7v-25.5c0-2.9,2.4-5.3,5.3-5.3c2.9,0,5.3,2.4,5.3,5.3V391.2z"/>
	<path class="st1" d="M253.7,391.2H243v-28.1c0-1.5,1.3-2.8,2.8-2.8h5.1c1.5,0,2.8,1.3,2.8,2.8L253.7,391.2L253.7,391.2z"/>
	<path class="st3" d="M265,399.5V437c0,5.8-4.7,10.5-10.5,10.5h0h-41.7c-5.8,0-10.5-4.7-10.5-10.5v0c45-3.1,49.1-37.5,49.1-37.5H265
		z"/>
	<rect x="202.4" y="399.5" class="st4" width="62.6" height="3"/>
	<rect x="218.4" y="447.5" class="st4" width="30.6" height="2"/>
	<rect x="213.7" y="387.5" class="st4" width="10.7" height="3.7"/>
	<rect x="243" y="387.5" class="st4" width="10.7" height="3.7"/>
	<path class="st4" d="M249,447.5V462c0,4.5-3.6,8.1-8.1,8.1h-14.4c-2.4,0-4.6-1-6.2-2.9c22.4,2.7,25.9-19.8,25.9-19.8H249z"/>
	<path class="st5" d="M315.2,370.9h19.4c1.5,0,2.7,1.2,2.7,2.7s-1.2,2.7-2.7,2.7h-19.4c-1.5,0-2.7-1.2-2.7-2.7
		S313.8,370.9,315.2,370.9z"/>
	<path class="st5" d="M290.9,395.5c1.5,0,2.7,1.2,2.7,2.7v0v19.4c0,1.5-1.2,2.7-2.7,2.7c-1.5,0-2.7-1.2-2.7-2.7v0v-19.4
		C288.2,396.7,289.4,395.5,290.9,395.5L290.9,395.5z"/>
	<path class="st5" d="M308.5,388.7c0.7,0,1.4,0.3,1.9,0.8l13.3,13.3c1,1,1,2.7,0,3.8s-2.7,1-3.8,0l-13.3-13.3c-1-1-1-2.7,0-3.8
		C307.1,389,307.8,388.7,308.5,388.7L308.5,388.7z"/>
</g>
</svg>
