 <svg
    xmlns="http://www.w3.org/2000/svg"
    xmlSpace="preserve"
    fill="#f0f1f3"
		height="22"
    viewBox="0 0 17 22"
  >
    <path
      d="M13.8 5.5c0 3-2.3 5.4-5.3 5.5-3-.1-5.3-2.5-5.3-5.5S5.5.1 8.5 0c2.9 0 5.3 2.3 5.3 5.2v.3h-2.2c0-1.8-1.4-3.3-3.2-3.4-1.8 0-3.2 1.5-3.2 3.3v.1c0 1.8 1.4 3.2 3.2 3.2s3.2-1.4 3.2-3.2h2.2zm-5.3 7.6v-1c-4.8.1-8.6 4-8.5 8.8 0 .3.1.6.4.8.2.2.4.3.7.3h14.8c.3 0 .5-.1.7-.3.2-.2.3-.5.4-.8.1-4.8-3.7-8.7-8.5-8.8v2.1c1.7 0 3.4.7 4.5 2 1.2 1.2 1.9 2.9 1.9 4.7H16v-1.2H1v1.2h1.1c0-1.8.7-3.4 1.9-4.7 1.2-1.2 2.8-1.9 4.5-2v-1z"
    />
  </svg>