<svg
    xmlns="http://www.w3.org/2000/svg"
    xmlSpace="preserve"
    fill="#f0f1f3"
    viewBox="0 0 22 17"
  >
    <path
      d="M7.6 10.7h6.7c.5 0 .9-.4.9-.9s-.4-.9-.9-.9H7.6c-.5 0-.9.4-.9.9s.4.9.9.9zM.9 14.3h.9V3.1c0-.7.6-1.3 1.3-1.3V1v.8h.1V1l-.1.8H9.5l2 2c.2.2.4.3.6.3h6.7v-.4.4-.4.4c.7 0 1.3.6 1.3 1.3v8.9c0 .7-.6 1.3-1.3 1.3v.6-.6.6-.6h-.1v.9-.9H3.2v.6-.6.6-.6c-.7 0-1.3-.6-1.3-1.3H0c0 1.7 1.4 3.1 3.1 3.1v-.6.6-.6.6h15.7v-.9.9-.9.9-.6.6-.6.6c1.7 0 3.1-1.4 3.1-3.1V5.4c0-1.7-1.4-3.1-3.1-3.1v.9-1h-6.3l-2-2c-.1-.1-.4-.2-.6-.2H3.2v.9V0v.6V0v.6V0C1.4 0 0 1.4 0 3.1v11.1h.9z"
    />
  </svg>