  <svg
    xmlns="http://www.w3.org/2000/svg"
    xmlSpace="preserve"
    viewBox="0 0 19.8 19.8"
     fill= "#1d4370"
  >
    <path
      d="M6.9 7.4c.6-1 1.6-1.6 2.8-1.6H10c.9 0 1.7.3 2.3.7.4.4.7.9.7 1.4 0 .4-.2.8-.6 1.2-.4.4-1 .7-1.7.8l.2.9-.1-.9c-1 .1-1.7 1-1.8 1.9 0 .5.4.9.9.9s.9-.4.9-.9c0-.1.1-.2.2-.3 1-.2 1.9-.6 2.6-1.3.7-.6 1.1-1.5 1.1-2.5 0-1.2-.6-2.2-1.5-2.8-.8-.5-2-.9-3.3-.9v.9L10 4h-.3c-1.8 0-3.4.9-4.3 2.4-.3.4-.1 1 .3 1.2.4.3.9.2 1.2-.2zm3 8.4c.5 0 .9-.4.9-.9s-.4-.9-.9-.9-.9.4-.9.9.4.9.9.9zm9-5.9H18c0 2.2-.9 4.3-2.4 5.7-1.5 1.5-3.5 2.4-5.7 2.4s-4.3-.9-5.7-2.4c-1.5-1.5-2.4-3.5-2.4-5.7s.9-4.3 2.4-5.7c1.5-1.5 3.5-2.4 5.7-2.4s4.3.9 5.7 2.4C17.1 5.6 18 7.7 18 9.9h1.8c0-5.5-4.4-9.9-9.9-9.9S0 4.4 0 9.9s4.4 9.9 9.9 9.9 9.9-4.4 9.9-9.9h-.9z"
    />
  </svg>