<svg xmlns="http://www.w3.org/2000/svg" width="22" height="22" viewBox="0 0 22 22">
  <defs>
    <style>
      .cls-1 {
        fill: #f0f1f3;
      }
    </style>
  </defs>
  <path id="Path_969" data-name="Path 969" class="cls-1" d="M1379.256-525.586a4.134,4.134,0,0,1-.243.872,4.908,4.908,0,0,1-.732,1.077c-.7.752-1.447,1.468-2.179,2.194a2.921,2.921,0,0,1-4.305,0q-.641-.636-1.277-1.278a.865.865,0,0,1-.165-1.256l-2.391-2.381a1.807,1.807,0,0,1-.161.206q-4.218,4.225-8.439,8.448a2.9,2.9,0,0,0-.25.268.821.821,0,0,0,.052,1.09.831.831,0,0,0,1.09.091,2.475,2.475,0,0,0,.293-.268q3.68-3.68,7.366-7.356a1.4,1.4,0,0,1,.645-.358.709.709,0,0,1,.79.4.792.792,0,0,1-.062.917,1.583,1.583,0,0,1-.163.182q-3.765,3.769-7.533,7.535a2.5,2.5,0,0,1-3.264.332,2.487,2.487,0,0,1-.409-3.732c.682-.731,1.406-1.423,2.113-2.13l6.406-6.41c.071-.071.137-.146.264-.282a.993.993,0,0,1-1.21-.32c-.405-.431-.837-.837-1.251-1.26a2.908,2.908,0,0,1-.018-4.2q1.142-1.174,2.315-2.318a2.909,2.909,0,0,1,4.2.005c.425.412.838.836,1.256,1.255.5.505.545.749.236,1.358l3.515,3.508c.627-.3.847-.265,1.37.258.368.368.73.743,1.105,1.1a3.037,3.037,0,0,1,.995,1.878.7.7,0,0,0,.047.141Zm-4.792-2.551-3.456-3.462-2.885,2.874,3.458,3.464Zm-2.225,4.736c.29.3.585.637.918.933a1.19,1.19,0,0,0,1.618-.027q1.255-1.208,2.464-2.464a1.172,1.172,0,0,0,.09-1.544,10.709,10.709,0,0,0-1.03-.959Zm-1.87-10.1c-.306-.309-.6-.637-.925-.927a1.215,1.215,0,0,0-1.668.035q-1.228,1.193-2.421,2.422a1.158,1.158,0,0,0-.155,1.491,13.478,13.478,0,0,0,1.033,1.123Z" transform="translate(-1357.256 536.412)"/>
</svg>
