<svg width="65" height="52" viewBox="0 0 65 52" fill="none" xmlns="http://www.w3.org/2000/svg">
<path d="M64.333 15.4116V41.466C64.3332 44.1225 63.3168 46.6783 61.4925 48.6092C59.6681 50.54 57.174 51.6996 54.5218 51.85L53.933 51.866H10.733C8.07657 51.8662 5.52076 50.8498 3.58987 49.0255C1.65898 47.2011 0.499404 44.707 0.349008 42.0548L0.333008 41.466V15.4116L31.2194 31.5908C31.563 31.7708 31.9451 31.8648 32.333 31.8648C32.7209 31.8648 33.103 31.7708 33.4466 31.5908L64.333 15.4116ZM10.733 0.666016H53.933C56.5109 0.665705 58.997 1.6228 60.9091 3.35167C62.8213 5.08054 64.0232 7.45796 64.2818 10.0228L32.333 26.7588L0.384208 10.0228C0.632283 7.55981 1.75077 5.26607 3.53861 3.5539C5.32645 1.84172 7.66639 0.823414 10.1378 0.682016L10.733 0.666016H53.933H10.733Z" fill="white"/>
</svg>
