<svg width="62" height="62" viewBox="0 0 62 62" fill="none" xmlns="http://www.w3.org/2000/svg">
<path d="M30.9993 0.279297C14.0329 0.279297 0.279297 14.0329 0.279297 30.9993C0.279297 47.9657 14.0329 61.7193 30.9993 61.7193C47.9657 61.7193 61.7193 47.9657 61.7193 30.9993C61.7193 14.0329 47.9657 0.279297 30.9993 0.279297ZM23.4793 43.7321H17.2585V23.7129H23.4793V43.7321ZM20.3305 21.2553C18.3657 21.2553 17.0953 19.8633 17.0953 18.1417C17.0953 16.3849 18.4041 15.0345 20.4105 15.0345C22.4169 15.0345 23.6457 16.3849 23.6841 18.1417C23.6841 19.8633 22.4169 21.2553 20.3305 21.2553ZM46.1993 43.7321H39.9785V32.6377C39.9785 30.0553 39.0761 28.3017 36.8265 28.3017C35.1081 28.3017 34.0873 29.4889 33.6361 30.6313C33.4697 31.0377 33.4281 31.6137 33.4281 32.1865V43.7289H27.2041V30.0969C27.2041 27.5977 27.1241 25.5081 27.0409 23.7097H32.4457L32.7305 26.4905H32.8553C33.6745 25.1849 35.6809 23.2585 39.0377 23.2585C43.1305 23.2585 46.1993 26.0009 46.1993 31.8953V43.7321Z" fill="#0779B8"/>
</svg>
