<?xml version="1.0" encoding="UTF-8"?>
<svg xmlns="http://www.w3.org/2000/svg" xmlns:xlink="http://www.w3.org/1999/xlink" width="62px" height="62px" viewBox="0 0 62 62" version="1.1">
<g id="surface1">
<path style=" stroke:none;fill-rule:nonzero;fill:rgb(0%,0%,0%);fill-opacity:1;" d="M 17.28125 16 L 39.667969 45.929688 L 44.738281 45.929688 L 22.347656 16 Z M 17.28125 16 "/>
<path style=" stroke:none;fill-rule:nonzero;fill:rgb(0%,0%,0%);fill-opacity:1;" d="M 30.964844 0.339844 C 14.050781 0.339844 0.339844 14.050781 0.339844 30.964844 C 0.339844 47.878906 14.050781 61.589844 30.964844 61.589844 C 47.878906 61.589844 61.589844 47.878906 61.589844 30.964844 C 61.589844 14.050781 47.878906 0.339844 30.964844 0.339844 Z M 38.472656 48.320312 L 28.28125 34.691406 L 15.664062 48.320312 L 12.421875 48.320312 L 26.832031 32.753906 L 12.511719 13.609375 L 23.546875 13.609375 L 32.933594 26.160156 L 44.554688 13.609375 L 47.796875 13.609375 L 34.382812 28.097656 L 49.507812 48.320312 Z M 38.472656 48.320312 "/>
</g>
</svg>
