<svg width="62" height="62" viewBox="0 0 62 62" fill="none" xmlns="http://www.w3.org/2000/svg">
<path d="M36.1289 30.4649L28.9417 27.1113C28.3145 26.8201 27.7993 27.1465 27.7993 27.8409V34.1577C27.7993 34.8521 28.3145 35.1785 28.9417 34.8873L36.1257 31.5337C36.7561 31.2393 36.7561 30.7593 36.1289 30.4649ZM30.9993 0.279297C14.0329 0.279297 0.279297 14.0329 0.279297 30.9993C0.279297 47.9657 14.0329 61.7193 30.9993 61.7193C47.9657 61.7193 61.7193 47.9657 61.7193 30.9993C61.7193 14.0329 47.9657 0.279297 30.9993 0.279297ZM30.9993 43.4793C15.2745 43.4793 14.9993 42.0617 14.9993 30.9993C14.9993 19.9369 15.2745 18.5193 30.9993 18.5193C46.7241 18.5193 46.9993 19.9369 46.9993 30.9993C46.9993 42.0617 46.7241 43.4793 30.9993 43.4793Z" fill="#CD1F1E"/>
</svg>
